<?xml version="1.0" standalone="no"?>
<svg xmlns="http://www.w3.org/2000/svg" viewBox="0 0 100.688 116.264" width="100.688" height="116.264"><polygon fill="#0aab1a" points="100.688,29.066 100.688,87.198 50.344,116.264 0,87.198 0,29.066 50.344,0"></polygon><g fill="white" color="white" transform="translate(28.344 22.5) scale(1.0476191)"><svg width="42.0" height="42.0" x="0.0" y="0.0" viewBox="0 0 42 42"><path fill="currentColor" fill-rule="nonzero" d="M21 41.41L41.41.59H.59L21 41.41zm0-7.61l-11.5-23h15.4l-1.7 3.4H15l6 12 9.4-18.8H7.8L6.1 4h29.8L21 33.8z"></path></svg></g><path fill="white" fill-rule="nonzero" d="M12.82 0Q14.28 0 15.50 0.60Q16.72 1.20 17.43 2.30Q18.14 3.39 18.14 4.73L18.14 4.73Q18.14 8.29 14.92 9.21L14.92 9.21L14.92 9.32Q18.59 10.16 18.59 14.14L18.59 14.14Q18.59 15.65 17.85 16.81Q17.11 17.98 15.82 18.62Q14.53 19.26 12.99 19.26L12.99 19.26L0 19.26L0 0L12.82 0ZM6.19 4.23L6.19 7.50L10.44 7.50Q11.06 7.50 11.47 7.07Q11.87 6.64 11.87 5.99L11.87 5.99L11.87 5.71Q11.87 5.10 11.45 4.66Q11.03 4.23 10.44 4.23L10.44 4.23L6.19 4.23ZM6.19 11.48L6.19 14.78L10.89 14.78Q11.51 14.78 11.91 14.35Q12.32 13.92 12.32 13.27L12.32 13.27L12.32 12.99Q12.32 12.35 11.91 11.91Q11.51 11.48 10.89 11.48L10.89 11.48L6.19 11.48Z" transform="translate(41.048, 74.5)"></path></svg>